<svg xmlns="http://www.w3.org/2000/svg" width="1728" height="1229" fill="none"><g clip-path="url(#a)"><path fill="url(#b)" d="M1559 197v-80H169v80z"/><path fill="#000A02" d="M2144 128V0H-416v128z"/><path fill="url(#c)" d="M110.63 790.8v141.24l-67.56 38v-153.9z"/><path stroke="url(#d)" stroke-miterlimit="10" d="m10.58-211.68 389.33 328.5m37.33-328.5 194.67 328.5m232 0v-328.5m232 328.5 194.67-328.5m37.33 328.5 389.33-328.5m269.63 88.34H-259.05m2123.2 69.02H-136.33M1765.61 1.11H-37.79M1684.74 46.6H43.07m1574.12 38H110.63m57.28 32.22-584-328.5h2560l-584 328.5z"/><path fill="url(#e)" d="m1617.19 84.6-57.28 32.22h-232l38.19-32.22z"/><path fill="url(#f)" d="M612.82 84.6h-251.1l-45.03-38H590.3z"/><path stroke="url(#g)" stroke-miterlimit="10" d="M167.91 117.32v782.5l-584 328.5L-414.55-222m582.46 991.32-584 219m584-349.5-584 109.5m584-240h-584m584-130.5-584-109.5m584-21-584-219m157.04-151.66v1263.33M-136.33-54.32v1125.27M-37.79 1.11v1014.41M43.07 46.6v923.44M110.63 84.6v847.44"/><path stroke="url(#h)" stroke-miterlimit="10" d="m2142.52-214.92 1.39 1443.24-584-328.5v-783m0 652.5 584 219m-584-349.5 584 109.5m-585.66-240h584m-582.34-130.5 584-109.5m-584-21 584-219m-157.04-151.66v1263.33m-122.72-69.04V-54.32m-98.54 55.43v1014.41M1684.74 46.6v923.44M1617.19 84.6v847.44"/><path fill="url(#i)" d="M1765.61 170.18v169.07l-80.86 15.16v-153.9z"/><path stroke="url(#j)" stroke-miterlimit="10" d="M110.63 225.84-259.05 87.21"/><path stroke="url(#k)" stroke-miterlimit="10" d="m1137.25 46.6 125.24-210.88"/><path fill="url(#l)" d="M1684.75 662.23v153.91l-67.56-25.34V649.56z"/><path fill="url(#m)" d="M43.07 354.41v153.91h-80.86V339.25z"/><path stroke="url(#n)" stroke-miterlimit="10" d="M1617.19 508.32h369.68"/><path fill="url(#o)" d="M167.52-214.92h-583.61v1443.24h583.61z"/><path fill="url(#p)" d="M1558 1228h586V-215h-586z"/></g><defs><linearGradient id="b" x1="864" x2="864" y1="117" y2="197" gradientUnits="userSpaceOnUse"><stop stop-color="#000A02"/><stop offset="1" stop-color="#000A02" stop-opacity="0"/></linearGradient><linearGradient id="c" x1="107.78" x2="27.51" y1="934" y2="794.96" gradientUnits="userSpaceOnUse"><stop stop-color="#53FC18" stop-opacity=".2"/><stop offset=".62" stop-color="#53FC18" stop-opacity="0"/></linearGradient><linearGradient id="d" x1="863.91" x2="863.91" y1="-212.18" y2="117.32" gradientUnits="userSpaceOnUse"><stop stop-color="#fff" stop-opacity="0"/><stop offset=".13" stop-color="#fff" stop-opacity=".01"/><stop offset=".44" stop-color="#fff" stop-opacity=".017"/><stop offset=".73" stop-color="#fff" stop-opacity=".032"/><stop offset="1" stop-color="#fff" stop-opacity=".2"/></linearGradient><linearGradient id="e" x1="1617.19" x2="1327.91" y1="100.71" y2="100.71" gradientUnits="userSpaceOnUse"><stop stop-color="#53FC18" stop-opacity=".2"/><stop offset=".75" stop-color="#53FC18" stop-opacity="0"/></linearGradient><linearGradient id="f" x1="316.69" x2="612.82" y1="65.6" y2="65.6" gradientUnits="userSpaceOnUse"><stop stop-color="#53FC18" stop-opacity=".2"/><stop offset=".75" stop-color="#53FC18" stop-opacity="0"/></linearGradient><linearGradient id="g" x1="-416.59" x2="168.41" y1="503.59" y2="503.59" gradientUnits="userSpaceOnUse"><stop stop-color="#fff" stop-opacity="0"/><stop offset=".13" stop-color="#fff" stop-opacity=".01"/><stop offset=".44" stop-color="#fff" stop-opacity=".017"/><stop offset=".73" stop-color="#fff" stop-opacity=".032"/><stop offset="1" stop-color="#fff" stop-opacity=".2"/></linearGradient><linearGradient id="h" x1="2144.41" x2="1558.25" y1="507.13" y2="507.13" gradientUnits="userSpaceOnUse"><stop stop-color="#fff" stop-opacity="0"/><stop offset=".13" stop-color="#fff" stop-opacity=".01"/><stop offset=".44" stop-color="#fff" stop-opacity=".017"/><stop offset=".73" stop-color="#fff" stop-opacity=".032"/><stop offset="1" stop-color="#fff" stop-opacity=".2"/></linearGradient><linearGradient id="i" x1="1688.32" x2="1768.61" y1="198.45" y2="337.52" gradientUnits="userSpaceOnUse"><stop stop-color="#53FC18" stop-opacity=".2"/><stop offset=".62" stop-color="#53FC18" stop-opacity="0"/></linearGradient><linearGradient id="j" x1="110.8" x2="-259.22" y1="156.52" y2="156.52" gradientUnits="userSpaceOnUse"><stop stop-color="#53FC18" stop-opacity=".5"/><stop offset=".25" stop-color="#53FC18" stop-opacity=".122"/><stop offset=".59" stop-color="#53FC18" stop-opacity=".026"/><stop offset=".85" stop-color="#53FC18" stop-opacity=".01"/><stop offset="1" stop-color="#53FC18" stop-opacity="0"/></linearGradient><linearGradient id="k" x1="1107.01" x2="1292.67" y1="-5.331" y2="-112.512" gradientUnits="userSpaceOnUse"><stop stop-color="#53FC18" stop-opacity=".5"/><stop offset=".4" stop-color="#53FC18" stop-opacity=".096"/><stop offset="1" stop-color="#53FC18" stop-opacity="0"/></linearGradient><linearGradient id="l" x1="1650.97" x2="1650.97" y1="816.14" y2="649.56" gradientUnits="userSpaceOnUse"><stop stop-color="#53FC18" stop-opacity=".2"/><stop offset=".62" stop-color="#53FC18" stop-opacity="0"/></linearGradient><linearGradient id="m" x1="2.64" x2="2.64" y1="339.25" y2="508.32" gradientUnits="userSpaceOnUse"><stop stop-color="#53FC18" stop-opacity=".2"/><stop offset=".62" stop-color="#53FC18" stop-opacity="0"/></linearGradient><linearGradient id="n" x1="1617.19" x2="1986.87" y1="508.82" y2="508.82" gradientUnits="userSpaceOnUse"><stop stop-color="#53FC18" stop-opacity=".5"/><stop offset="1" stop-color="#53FC18" stop-opacity="0"/></linearGradient><linearGradient id="o" x1="-416.09" x2="167.51" y1="506.7" y2="506.7" gradientUnits="userSpaceOnUse"><stop stop-color="#000A02"/><stop offset="1" stop-color="#000A02" stop-opacity="0"/></linearGradient><linearGradient id="p" x1="2144" x2="1558" y1="506.5" y2="506.5" gradientUnits="userSpaceOnUse"><stop stop-color="#000A02"/><stop offset="1" stop-color="#000A02" stop-opacity="0"/></linearGradient><clipPath id="a"><path fill="#fff" d="M-418 0h2564v1229H-418z"/></clipPath></defs></svg>