<svg width="96" height="111" viewBox="0 0 96 111" fill="none" xmlns="http://www.w3.org/2000/svg">
<g clip-path="url(#clip0_3103_748)">
<path d="M91.5289 51.6525C93.0288 49.4557 102.37 39.1119 106.883 31.3721C110.405 25.3254 108.776 12.6763 99.5829 8.96041C87.633 4.13802 80.62 14.875 80.62 14.875C80.62 14.875 78.4869 10.5744 72.0312 9.55901C63.9005 8.27855 54.4711 9.65637 46.164 12.1816C38.1118 14.6232 30.9539 17.7585 25.2876 22.9159C20.2159 27.5351 21.0611 31.776 21.0611 31.776C21.0611 31.776 11.1494 26.6127 3.38564 35.3918C-4.3667 44.1772 1.86242 55.4628 7.90623 59.2066C15.7809 64.0848 23.9142 65.3741 27.8699 66.8644C31.8167 68.3573 35.5969 69.7734 36.2022 71.8601C36.8075 73.9469 36.018 74.6765 35.6293 74.6641C35.2495 74.6491 34.047 72.7934 32.7099 74.1247C30.891 75.9519 32.9493 80.5919 37.603 79.7425C42.1121 78.9255 41.6048 74.0571 41.6048 74.0571L40.9864 69.3364L49.615 72.2341L59.3742 76.4405L60.7558 82.0662C60.7558 82.0662 61.6536 86.4555 60.6435 90.7725C59.6335 95.0896 57.351 99.766 57.351 99.766L58.2181 103.153L87.2226 93.9892L85.3589 91.0159C85.3589 91.0159 80.3936 87.9701 76.8414 84.1871C74.3032 81.4769 73.1158 78.3461 73.1158 78.3461L70.7317 70.3927L83.1951 56.7077C83.1951 56.7077 85.191 57.515 85.0941 58.0437C84.9972 58.5724 86.3168 63.3208 90.4675 64.0229C94.5686 64.7201 96.8246 61.6782 95.6025 58.7596C94.383 55.8498 92.8285 57.4271 92.3853 58.0563C91.942 58.6854 90.6968 59.1718 89.8457 57.5318C88.9908 55.9122 90.029 53.8493 91.5289 51.6525ZM12.1579 56.9048L5.62072 47.345L8.22642 40.6302L12.5334 37.8886C12.5334 37.8886 19.8457 40.6291 20.1645 40.9313C20.4832 41.2336 26.2672 47.6328 26.2672 47.6328L36.0621 63.5447L12.1579 56.9048ZM84.4384 51.0041C84.4038 50.6195 83.547 31.1714 83.547 31.1714C83.4852 30.9583 86.1732 28.6094 86.0882 28.3164C86.0032 28.0233 88.9848 17.1946 88.9848 17.1946L98.5029 14.8284L103.164 23.5943L100.703 32.7026C100.715 32.7089 84.4704 51.3799 84.4384 51.0041Z" fill="#3F3F46"/>
<path d="M104.376 20.2891C101.282 12.2142 92.5208 12.6088 89.5031 14.7838C86.4855 16.9588 84.9527 19.839 85.1341 23.2521C85.2798 26.0112 85.1757 27.909 84.5604 28.3763C83.8791 28.882 83.1442 28.97 83.1442 28.97C83.1442 28.97 81.3971 23.4119 80.7784 21.1461C79.5175 16.4674 80.5931 14.8654 80.5931 14.8654C80.5931 14.8654 79.8353 13.3813 78.979 12.6862C78.1253 12 76.682 11.2057 76.682 11.2057C76.682 11.2057 77.5886 13.3687 76.6217 14.2172C75.6548 15.0656 74.2205 14.6345 74.2205 14.6345L76.689 18.9629C76.689 18.9629 81.6055 42.6822 81.5862 43.2462C81.5669 43.8101 78.1819 57.5958 78.1819 57.5958C78.1819 57.5958 75.2894 62.4588 73.6478 63.8688C71.9974 65.2814 71.0152 68.0019 63.7126 70.2068C56.4126 72.4206 48.4401 68.4661 48.4401 68.4661L40.3929 64.2542L31.7629 51.8936L27.0186 38.1267L25.8383 32.9625L25.4269 30.781L24.7867 29.8019C24.7867 29.8019 24.358 30.5809 23.1645 30.6479C21.9709 30.7149 21.1108 29.376 21.1108 29.376C21.1108 29.376 20.8766 30.1948 20.8972 30.5643C20.9088 30.9364 21.0519 31.7613 21.0519 31.7613C21.0519 31.7613 22.6278 32.6808 23.4108 34.4176C24.1938 36.1543 26.024 43.7581 24.6849 43.954C23.3395 44.1614 21.9395 37.742 16.3285 36.7511C11.4672 35.8893 5.30108 38.3615 4.23306 44.3704C3.17392 50.3767 6.86576 56.035 16.6498 59.464C26.4338 62.893 36.4738 65.2466 39.1858 69.4851C42.4192 74.5255 39.6669 78.8762 39.6669 78.8762C39.6669 78.8762 42.2492 77.7228 42.7352 74.4531C42.8909 73.3971 42.6567 71.9921 42.4845 71.166C46.707 74.2733 51.7642 76.4741 57.637 76.5419C59.8828 76.651 62.2857 76.3391 65.4824 75.4118C65.9441 75.2779 66.3919 75.1287 66.8396 74.9796C70.5393 73.762 73.5325 72.1332 76.1859 69.6981C79.8067 66.5491 82.1901 62.652 83.7205 58.5691C83.8813 59.3889 84.9467 61.2363 86.3349 62.5376C88.7699 64.8252 91.5804 64.1929 91.5804 64.1929C91.5804 64.1929 87.1397 63.055 86.3616 57.4854C85.5835 51.9157 88.5664 48.9903 92.9126 43.9943C97.274 38.9843 107.46 28.3667 104.376 20.2891ZM20.1798 57.4292C17.2815 56.4312 12.4068 55.3904 9.66437 52.441C6.00994 48.5047 6.27743 42.3911 10.4834 40.4298C19.2123 36.3382 22.6754 47.6464 23.6784 48.8476C24.6815 50.0488 26.4299 49.6379 26.4299 49.6379C26.4299 49.6379 26.7136 50.3835 27.3898 51.7855C27.4116 51.8273 27.4308 51.8602 27.4436 51.9046L27.5089 52.0301C27.9687 52.9846 28.5716 54.1671 29.3238 55.4988L29.3813 55.5976C29.8022 56.3516 30.219 57.0586 30.6268 57.7008C31.4628 59.0564 32.4211 60.5016 33.5078 61.9577C32.4446 61.6115 26.334 59.5622 20.1798 57.4292ZM101.184 27.0102C100.172 30.6541 96.9761 34.0744 94.6872 36.837C91.7348 40.3986 87.3519 45.7325 86.1108 47.2285C86.1929 46.1842 86.2332 45.1617 86.2521 44.1646C86.3635 42.8231 86.4243 41.2074 86.3007 39.52C85.9781 35.089 85.0704 31.3956 85.0704 31.3956C85.0704 31.3956 87.0312 31.3852 87.7998 29.853C88.5683 28.3208 87.8987 24.4525 88.4339 22.3815C89.2667 19.146 91.7191 15.354 97.6378 17.3724C101.059 18.5461 102.379 22.6975 101.184 27.0102ZM64.1664 78.8068L69.1654 77.2893C69.1654 77.2893 70.8878 82.7294 72.863 86.5849C74.8407 90.4492 77.2162 94.6891 77.2162 94.6891C77.2162 94.6891 67.9899 101.081 66.9805 97.3693C65.9711 93.6574 65.4032 86.0243 65.4032 86.0243C65.4032 86.0243 63.8411 77.1875 64.1664 78.8068Z" fill="#27272A"/>
<path d="M39.2358 24.3071C39.2358 24.3071 44.6383 22.0565 49.8561 20.6295C55.0739 19.2026 60.7157 18.6732 60.7157 18.6732C60.7157 18.6732 65.4483 36.1498 67.3289 46.1842C69.2184 56.216 67.6444 64.5956 67.2589 66.9504C66.8909 69.2329 66.5099 70.5082 66.5099 70.5082L61.3317 71.3749L47.6307 56.4998L39.2358 24.3071Z" fill="#27272A"/>
<path d="M33.3073 28.8481C33.3073 28.8481 34.6498 27.6019 36.682 26.0786C38.5243 24.697 40.3195 23.9163 40.3195 23.9163C40.3195 23.9163 43.7162 35.4267 46.2878 43.5953C48.4799 50.555 54.4033 61.2843 56.5554 63.9909C58.7075 66.6976 62.3407 70.7267 62.3407 70.7267C62.3407 70.7267 57.5771 71.3961 53.7268 68.643C51.6978 67.1906 40.5385 54.6396 37.5143 45.1101C34.4901 35.5807 33.4687 28.5414 33.3073 28.8481Z" fill="#71717A"/>
<path d="M31.0881 30.9382C31.0648 31.4552 32.6899 41.737 37.3208 50.3671C41.9518 58.9972 46.6816 64.4507 49.3234 66.3895C51.6697 68.106 53.0836 68.8318 53.7141 68.649C54.3445 68.4661 48.9086 61.7734 45.6719 56.2238C42.4466 50.6805 39.5777 43.7438 38.3927 40.256C37.2051 36.7594 34.4062 27.6749 34.4062 27.6749C34.4062 27.6749 32.9039 28.9674 32.5802 29.3116C32.259 29.6647 31.0881 30.9382 31.0881 30.9382Z" fill="#A1A1AA"/>
<path d="M62.8698 98.1449C62.8698 98.1449 64.656 91.6581 64.1558 87.2786C63.6555 82.8991 62.9747 79.0918 62.9747 79.0918L65.0961 78.5727C65.0961 78.5727 66.646 84.679 67.5936 88.8421C68.5413 93.0052 69.0041 97.2223 69.0041 97.2223L62.8698 98.1449Z" fill="#71717A"/>
<path d="M59.3917 76.4364C59.3917 76.4364 60.5178 74.4443 64.8422 73.1899C69.1666 71.9355 71.5042 73.0576 71.5042 73.0576L73.1676 78.3609C73.1676 78.3609 70.0305 78.2986 66.519 79.269C63.5961 80.0783 60.7758 82.0709 60.7758 82.0709L59.3917 76.4364ZM25.1298 28.912C25.6622 28.026 31.1219 20.7624 47.6058 15.8268C65.3366 10.5103 73.4993 13.7261 73.999 13.8892C74.5598 14.0635 75.5225 15.3245 75.4745 16.022C75.4176 16.722 75.0139 17.0894 73.5223 16.9252C72.0218 16.7636 64.0166 13.8583 48.2662 18.9662C33.1385 23.8645 28.0123 30.3864 27.4419 30.9754C26.9815 31.4459 25.9835 31.822 25.33 31.3281C24.6702 30.8456 24.7879 29.4926 25.1298 28.912ZM76.0901 18.1442C74.0941 18.8965 80.2763 34.9321 78.9398 46.487C77.5011 58.8513 72.4991 63.7102 72.9217 64.2711C73.3443 64.832 78.6265 61.4033 80.7743 55.1678C82.7666 49.3914 83.5751 44.5455 82.8819 38.6047C82.171 32.669 78.3118 17.3072 76.0901 18.1442ZM26.3148 34.6236C25.7921 34.7464 28.696 42.7992 28.9071 46.6465C28.9892 48.1245 28.2902 48.6353 28.3005 48.9693C28.3107 49.3032 33.167 59.3409 37.5218 63.1029C41.7351 66.7423 49.1004 70.6611 49.7686 69.4469C50.4368 68.2326 44.4077 66.5639 38.9676 60.7197C35.8401 57.3718 32.1 52.0452 30.0574 45.302C28.7059 40.8421 27.4339 34.3664 26.3148 34.6236Z" fill="#52525B"/>
<path d="M96.0827 101.7L92.3931 89.013L51.6619 100.828C51.7862 100.792 54.6815 111.139 55.3644 113.559L49.5748 115.238L52.2407 124.429L103.965 109.425L101.299 100.235L96.0827 101.7Z" fill="#27272A"/>
<path d="M66.6486 103.711C65.6324 103.958 64.5372 104.497 64.8534 105.753C65.1697 107.009 66.2128 110.605 66.4112 111.289C66.6095 111.973 67.3415 112.405 68.7574 112.043C70.1732 111.68 83.329 107.816 84.2525 107.548C85.176 107.28 85.4236 106.342 85.2273 105.533C85.0399 104.721 83.9749 101.381 83.7096 100.466C83.2691 98.9478 81.9105 99.3419 80.9871 99.6098C79.9874 99.8805 66.6486 103.711 66.6486 103.711Z" fill="#52525B"/>
</g>
<defs>
<clipPath id="clip0_3103_748">
<rect width="118.346" height="118.346" fill="white" transform="translate(-10 23.9697) rotate(-16.1761)"/>
</clipPath>
</defs>
</svg>
